<?xml version="1.0" encoding="UTF-8"?>
<!DOCTYPE svg PUBLIC "-//W3C//DTD SVG 1.1//EN" "http://www.w3.org/Graphics/SVG/1.1/DTD/svg11.dtd">
<svg xmlns="http://www.w3.org/2000/svg" version="1.1" width="512px" height="512px" style="shape-rendering:geometricPrecision; text-rendering:geometricPrecision; image-rendering:optimizeQuality; fill-rule:evenodd; clip-rule:evenodd" xmlns:xlink="http://www.w3.org/1999/xlink">
<g><path style="opacity:0.994" fill="#2375eb" d="M 506.5,73.5 C 358.999,73.167 211.666,73.5004 64.5,74.5C 52.6022,75.0355 43.4355,80.3688 37,90.5C 33.873,95.419 31.873,100.752 31,106.5C 30.3333,162.833 30.3333,219.167 31,275.5C 31.5816,284.418 34.4149,292.418 39.5,299.5C 39.5,299.833 39.5,300.167 39.5,300.5C 17.8171,297.149 4.48373,284.816 -0.5,263.5C -0.5,203.833 -0.5,144.167 -0.5,84.5C 3.14602,70.0184 12.146,60.5184 26.5,56C 179.167,55.3333 331.833,55.3333 484.5,56C 494.669,58.3416 502.002,64.175 506.5,73.5 Z"/></g>
<g><path style="opacity:0.998" fill="#3d85f3" d="M 64.5,74.5 C 211.666,73.5004 358.999,73.167 506.5,73.5C 507.338,73.8417 507.672,74.5084 507.5,75.5C 359.903,74.5017 212.237,74.1683 64.5,74.5 Z"/></g>
<g><path style="opacity:1" fill="#5393f9" d="M 64.5,74.5 C 212.237,74.1683 359.903,74.5017 507.5,75.5C 509.224,78.3448 510.558,81.3448 511.5,84.5C 511.5,144.167 511.5,203.833 511.5,263.5C 506.727,284.44 493.727,296.606 472.5,300C 328.167,300.5 183.834,300.667 39.5,300.5C 39.5,300.167 39.5,299.833 39.5,299.5C 34.4149,292.418 31.5816,284.418 31,275.5C 30.3333,219.167 30.3333,162.833 31,106.5C 31.873,100.752 33.873,95.419 37,90.5C 43.4355,80.3688 52.6022,75.0355 64.5,74.5 Z"/></g>
<g><path style="opacity:1" fill="#78f2ab" d="M 205.5,101.5 C 205.186,109.042 208.519,114.209 215.5,117C 251.498,117.5 287.498,117.667 323.5,117.5C 323.438,126.393 319.104,131.893 310.5,134C 273.5,134.667 236.5,134.667 199.5,134C 189.531,130.235 185.698,123.068 188,112.5C 191.197,104.651 197.031,100.984 205.5,101.5 Z"/></g>
<g><path style="opacity:1" fill="#a0feba" d="M 205.5,101.5 C 240.835,101.333 276.168,101.5 311.5,102C 319.095,104.424 323.095,109.59 323.5,117.5C 287.498,117.667 251.498,117.5 215.5,117C 208.519,114.209 205.186,109.042 205.5,101.5 Z"/></g>
<g><path style="opacity:1" fill="#d32f30" d="M 403.5,104.5 C 394.167,113.5 394.167,122.5 403.5,131.5C 385.052,133.877 378.886,126.211 385,108.5C 390.315,103.545 396.482,102.212 403.5,104.5 Z"/></g>
<g><path style="opacity:1" fill="#d32f2f" d="M 462.5,104.5 C 453.167,113.5 453.167,122.5 462.5,131.5C 450.417,134.919 443.417,130.419 441.5,118C 443.417,105.581 450.417,101.081 462.5,104.5 Z"/></g>
<g><path style="opacity:1" fill="#f65658" d="M 403.5,104.5 C 412.612,110.351 414.446,118.017 409,127.5C 407.568,129.439 405.735,130.772 403.5,131.5C 394.167,122.5 394.167,113.5 403.5,104.5 Z"/></g>
<g><path style="opacity:1" fill="#f65657" d="M 462.5,104.5 C 471.732,109.623 473.898,116.957 469,126.5C 467.223,128.79 465.056,130.457 462.5,131.5C 453.167,122.5 453.167,113.5 462.5,104.5 Z"/></g>
<g><path style="opacity:1" fill="#4a4f54" d="M 470.5,262.5 C 443.498,262.333 416.498,262.5 389.5,263C 384.159,267.991 384.492,272.658 390.5,277C 417.498,277.5 444.498,277.667 471.5,277.5C 471.5,284.833 471.5,292.167 471.5,299.5C 327.5,299.5 183.5,299.5 39.5,299.5C 39.5,292.167 39.5,284.833 39.5,277.5C 148.167,277.667 256.834,277.5 365.5,277C 369.749,273.623 370.582,269.457 368,264.5C 367.25,263.874 366.416,263.374 365.5,263C 257.167,262.5 148.834,262.333 40.5,262.5C 44.1218,251.046 51.7884,243.879 63.5,241C 191.167,240.333 318.833,240.333 446.5,241C 458.773,243.442 466.773,250.608 470.5,262.5 Z"/></g>
<g><path style="opacity:1" fill="#7c7e84" d="M 40.5,262.5 C 148.834,262.333 257.167,262.5 365.5,263C 366.416,263.374 367.25,263.874 368,264.5C 370.582,269.457 369.749,273.623 365.5,277C 256.834,277.5 148.167,277.667 39.5,277.5C 39.2213,272.405 39.5546,267.405 40.5,262.5 Z"/></g>
<g><path style="opacity:1" fill="#7c7e84" d="M 470.5,262.5 C 471.445,267.405 471.779,272.405 471.5,277.5C 444.498,277.667 417.498,277.5 390.5,277C 384.492,272.658 384.159,267.991 389.5,263C 416.498,262.5 443.498,262.333 470.5,262.5 Z"/></g>
<g><path style="opacity:0.936" fill="#d0d1d6" d="M 92.5,317.5 C 96.5849,317.459 99.7515,319.125 102,322.5C 102.928,336.556 102.595,350.556 101,364.5C 95.5093,377.288 85.676,383.788 71.5,384C 66.4487,385.717 63.6154,389.217 63,394.5C 62.6667,413.833 62.3333,433.167 62,452.5C 56.6088,458.069 51.6088,457.736 47,451.5C 46.3333,430.5 46.3333,409.5 47,388.5C 51.5533,373.619 61.7199,366.119 77.5,366C 80.9371,364.895 83.4371,362.728 85,359.5C 85.3333,348.167 85.6667,336.833 86,325.5C 86.5736,321.436 88.7402,318.769 92.5,317.5 Z"/></g>
<g><path style="opacity:0.919" fill="#d0d1d6" d="M 156.5,317.5 C 162.498,317.007 165.998,319.674 167,325.5C 167.87,337.876 167.536,350.209 166,362.5C 160.883,376.655 150.717,383.822 135.5,384C 132.829,385.25 130.663,387.083 129,389.5C 127.702,409.769 127.035,430.102 127,450.5C 124.322,456.088 120.155,457.588 114.5,455C 112.513,453.681 111.346,451.848 111,449.5C 110.333,430.833 110.333,412.167 111,393.5C 112.225,380.944 118.725,372.444 130.5,368C 134.469,367.147 138.469,366.481 142.5,366C 145.171,364.75 147.337,362.917 149,360.5C 150.275,347.903 150.942,335.236 151,322.5C 152.406,320.256 154.239,318.59 156.5,317.5 Z"/></g>
<g><path style="opacity:0.937" fill="#d0d1d6" d="M 221.5,317.5 C 225.585,317.459 228.752,319.125 231,322.5C 231.928,336.556 231.595,350.556 230,364.5C 224.509,377.288 214.676,383.788 200.5,384C 195.449,385.717 192.615,389.217 192,394.5C 191.667,413.5 191.333,432.5 191,451.5C 186.044,458.15 181.044,458.15 176,451.5C 175.333,430.5 175.333,409.5 176,388.5C 180.553,373.619 190.72,366.119 206.5,366C 209.937,364.895 212.437,362.728 214,359.5C 214.333,348.167 214.667,336.833 215,325.5C 215.574,321.436 217.74,318.769 221.5,317.5 Z"/></g>
<g><path style="opacity:0.919" fill="#d0d1d6" d="M 285.5,317.5 C 291.498,317.007 294.998,319.674 296,325.5C 296.87,337.876 296.536,350.209 295,362.5C 289.883,376.655 279.717,383.822 264.5,384C 261.829,385.25 259.663,387.083 258,389.5C 256.702,409.769 256.035,430.102 256,450.5C 253.322,456.088 249.155,457.588 243.5,455C 241.513,453.681 240.346,451.848 240,449.5C 239.084,428.467 239.417,407.467 241,386.5C 246.239,372.63 256.405,365.797 271.5,366C 274.171,364.75 276.337,362.917 278,360.5C 279.275,347.903 279.942,335.236 280,322.5C 281.406,320.256 283.239,318.59 285.5,317.5 Z"/></g>
<g><path style="opacity:0.936" fill="#d0d1d6" d="M 350.5,317.5 C 354.585,317.459 357.752,319.125 360,322.5C 360.928,336.556 360.595,350.556 359,364.5C 353.509,377.288 343.676,383.788 329.5,384C 324.449,385.717 321.615,389.217 321,394.5C 320.667,413.5 320.333,432.5 320,451.5C 315.044,458.15 310.044,458.15 305,451.5C 304.333,430.5 304.333,409.5 305,388.5C 309.553,373.619 319.72,366.119 335.5,366C 338.937,364.895 341.437,362.728 343,359.5C 343.333,348.167 343.667,336.833 344,325.5C 344.574,321.436 346.74,318.769 350.5,317.5 Z"/></g>
<g><path style="opacity:0.918" fill="#d0d1d6" d="M 414.5,317.5 C 420.498,317.007 423.998,319.674 425,325.5C 425.843,337.872 425.51,350.205 424,362.5C 418.883,376.655 408.717,383.822 393.5,384C 390.829,385.25 388.663,387.083 387,389.5C 385.702,409.769 385.035,430.102 385,450.5C 382.322,456.088 378.155,457.588 372.5,455C 370.513,453.681 369.346,451.848 369,449.5C 368.084,428.467 368.417,407.467 370,386.5C 375.239,372.63 385.405,365.797 400.5,366C 403.171,364.75 405.337,362.917 407,360.5C 408.254,347.889 408.921,335.223 409,322.5C 410.406,320.256 412.239,318.59 414.5,317.5 Z"/></g>
</svg>
