<?xml version="1.0" encoding="UTF-8"?>
<!DOCTYPE svg PUBLIC "-//W3C//DTD SVG 1.1//EN" "http://www.w3.org/Graphics/SVG/1.1/DTD/svg11.dtd">
<svg xmlns="http://www.w3.org/2000/svg" version="1.1" width="512px" height="512px" style="shape-rendering:geometricPrecision; text-rendering:geometricPrecision; image-rendering:optimizeQuality; fill-rule:evenodd; clip-rule:evenodd" xmlns:xlink="http://www.w3.org/1999/xlink">
<g><path style="opacity:0.993" fill="#5a5aa8" d="M 237.5,-0.5 C 249.5,-0.5 261.5,-0.5 273.5,-0.5C 336.255,9.41958 379.755,43.7529 404,102.5C 416.016,136.88 416.516,171.38 405.5,206C 423.167,206.333 440.833,206.667 458.5,207C 459.333,207.833 460.167,208.667 461,209.5C 477.57,263.038 494.404,316.372 511.5,369.5C 511.5,389.167 511.5,408.833 511.5,428.5C 510.373,429.122 509.373,429.955 508.5,431C 463.501,431.5 418.501,431.667 373.5,431.5C 373.5,443.167 373.5,454.833 373.5,466.5C 389.837,466.333 406.17,466.5 422.5,467C 434.771,472.033 439.938,481.2 438,494.5C 435.717,502.944 430.55,508.611 422.5,511.5C 311.167,511.5 199.833,511.5 88.5,511.5C 73.1621,503.994 68.9954,492.328 76,476.5C 78.9565,471.769 83.1231,468.602 88.5,467C 104.83,466.5 121.163,466.333 137.5,466.5C 137.5,454.833 137.5,443.167 137.5,431.5C 92.4988,431.667 47.4988,431.5 2.5,431C 1.62656,429.955 0.626561,429.122 -0.5,428.5C -0.5,408.833 -0.5,389.167 -0.5,369.5C 16.5963,316.372 33.4297,263.038 50,209.5C 50.8333,208.667 51.6667,207.833 52.5,207C 70.1667,206.667 87.8333,206.333 105.5,206C 88.0321,145.378 100.532,91.8779 143,45.5C 169.403,19.7514 200.903,4.41808 237.5,-0.5 Z M 193.5,431.5 C 234.833,431.5 276.167,431.5 317.5,431.5C 317.5,443.167 317.5,454.833 317.5,466.5C 276.167,466.5 234.833,466.5 193.5,466.5C 193.5,454.833 193.5,443.167 193.5,431.5 Z"/></g>
<g><path style="opacity:1" fill="#8380e0" d="M 239.5,14.5 C 310.17,11.7292 360.004,42.3958 389,106.5C 406.267,158.23 398.267,205.564 365,248.5C 324.157,292.89 274.324,308.057 215.5,294C 156.96,274.128 123.127,233.628 114,172.5C 109.948,113.44 132.448,67.6069 181.5,35C 199.592,24.4706 218.925,17.6373 239.5,14.5 Z"/></g>
<g><path style="opacity:1" fill="#5b5ba8" d="M 240.5,29.5 C 295.003,26.0009 336.837,47.0009 366,92.5C 392.672,143.737 388.672,192.404 354,238.5C 316.601,278.896 271.101,292.396 217.5,279C 167.171,260.857 137.671,225.357 129,172.5C 124.627,114.739 147.46,71.5723 197.5,43C 211.286,36.3468 225.62,31.8468 240.5,29.5 Z"/></g>
<g><path style="opacity:1" fill="#f3eceb" d="M 241.5,44.5 C 296.636,41.8035 336.136,65.1368 360,114.5C 376.809,164.145 366.309,206.978 328.5,243C 293.973,269.569 255.973,275.903 214.5,262C 208.04,258.936 201.707,255.603 195.5,252C 208.167,239.333 220.833,226.667 233.5,214C 236.866,213.67 240.199,214.003 243.5,215C 254.679,218.462 266.013,221.295 277.5,223.5C 282.92,223.395 287.92,221.895 292.5,219C 309,202.5 325.5,186 342,169.5C 342.577,165.112 342.244,160.779 341,156.5C 338.485,146.108 335.819,135.774 333,125.5C 330.774,121.139 327.274,119.639 322.5,121C 306.5,137 290.5,153 274.5,169C 265.813,168.22 257.313,166.387 249,163.5C 246.641,155.16 244.641,146.827 243,138.5C 259,122.5 275,106.5 291,90.5C 291.893,87.0838 291.393,83.9172 289.5,81C 274.764,76.0548 259.764,72.3882 244.5,70C 227.028,86.4711 209.862,103.304 193,120.5C 189.644,126.757 188.644,133.424 190,140.5C 193.649,153.092 196.649,165.759 199,178.5C 186.319,191.347 173.486,204.014 160.5,216.5C 143.555,188.484 139.055,158.484 147,126.5C 162.315,80.3423 193.815,53.0089 241.5,44.5 Z"/></g>
<g><path style="opacity:1" fill="#fdc045" d="M 248.5,85.5 C 255.524,87.1729 262.524,89.0062 269.5,91C 254.971,105.195 240.804,119.695 227,134.5C 229.373,147.991 232.706,161.325 237,174.5C 248.338,179.297 260.171,182.797 272.5,185C 274.5,185.667 276.5,185.667 278.5,185C 292.985,171.349 307.319,157.515 321.5,143.5C 324.431,150.22 325.931,157.22 326,164.5C 311.833,178.667 297.667,192.833 283.5,207C 280.634,208.457 277.634,208.79 274.5,208C 259.695,203.547 244.695,200.214 229.5,198C 214.195,212.304 199.195,226.971 184.5,242C 183.5,242.667 182.5,242.667 181.5,242C 177.667,238.167 173.833,234.333 170,230.5C 169.333,229.833 169.333,229.167 170,228.5C 185.362,213.471 200.362,198.138 215,182.5C 215.667,180.5 215.667,178.5 215,176.5C 211.667,163.833 208.333,151.167 205,138.5C 204.333,135.5 204.333,132.5 205,129.5C 219.702,114.965 234.202,100.299 248.5,85.5 Z"/></g>
<g><path style="opacity:1" fill="#6baefe" d="M 62.5,221.5 C 79.18,221.167 95.8467,221.501 112.5,222.5C 117.404,233.037 123.071,243.037 129.5,252.5C 126.514,263.776 123.847,275.11 121.5,286.5C 95.1667,286.5 68.8333,286.5 42.5,286.5C 48.7679,264.697 55.4345,243.031 62.5,221.5 Z"/></g>
<g><path style="opacity:1" fill="#6baefe" d="M 398.5,221.5 C 415.17,221.333 431.837,221.5 448.5,222C 455.669,243.339 462.335,264.839 468.5,286.5C 442.167,286.5 415.833,286.5 389.5,286.5C 387.153,275.11 384.486,263.776 381.5,252.5C 388.389,242.917 394.056,232.583 398.5,221.5 Z"/></g>
<g><path style="opacity:1" fill="#6badfd" d="M 141.5,266.5 C 149.046,273.545 157.046,280.045 165.5,286C 155.833,286.667 146.167,286.667 136.5,286C 138.554,279.616 140.221,273.116 141.5,266.5 Z"/></g>
<g><path style="opacity:1" fill="#6badfd" d="M 368.5,266.5 C 370.715,272.841 372.715,279.341 374.5,286C 364.833,286.667 355.167,286.667 345.5,286C 353.945,280.386 361.612,273.886 368.5,266.5 Z"/></g>
<g><path style="opacity:1" fill="#6baefe" d="M 37.5,301.5 C 64.1687,301.333 90.8354,301.5 117.5,302C 111.621,323.35 106.288,344.85 101.5,366.5C 73.5,366.5 45.5,366.5 17.5,366.5C 23.7679,344.697 30.4345,323.031 37.5,301.5 Z"/></g>
<g><path style="opacity:1" fill="#6baefe" d="M 132.5,301.5 C 153.169,301.333 173.836,301.5 194.5,302C 235.182,318.599 275.849,318.599 316.5,302C 337.164,301.5 357.831,301.333 378.5,301.5C 383.518,322.904 388.851,344.238 394.5,365.5C 301.835,366.667 209.168,366.833 116.5,366C 122.379,344.65 127.712,323.15 132.5,301.5 Z"/></g>
<g><path style="opacity:1" fill="#6baefe" d="M 393.5,302.5 C 419.997,301.336 446.664,301.17 473.5,302C 480.669,323.339 487.335,344.839 493.5,366.5C 465.5,366.5 437.5,366.5 409.5,366.5C 404.768,344.907 399.435,323.573 393.5,302.5 Z"/></g>
<g><path style="opacity:1" fill="#8380e1" d="M 14.5,381.5 C 175.167,381.5 335.833,381.5 496.5,381.5C 496.5,393.167 496.5,404.833 496.5,416.5C 335.833,416.5 175.167,416.5 14.5,416.5C 14.5,404.833 14.5,393.167 14.5,381.5 Z"/></g>
<g><path style="opacity:1" fill="#5a5aa8" d="M 33.5,391.5 C 39.6208,391.09 45.6208,391.59 51.5,393C 55.8754,398.121 55.2087,402.455 49.5,406C 43.7194,406.903 38.0527,406.57 32.5,405C 28.285,400.134 28.6183,395.634 33.5,391.5 Z"/></g>
<g><path style="opacity:1" fill="#5a5aa8" d="M 73.5,391.5 C 79.6208,391.09 85.6208,391.59 91.5,393C 95.8754,398.121 95.2087,402.455 89.5,406C 83.7194,406.903 78.0527,406.57 72.5,405C 68.285,400.134 68.6183,395.634 73.5,391.5 Z"/></g>
<g><path style="opacity:1" fill="#efe8e9" d="M 152.5,431.5 C 161.167,431.5 169.833,431.5 178.5,431.5C 178.5,443.167 178.5,454.833 178.5,466.5C 169.833,466.5 161.167,466.5 152.5,466.5C 152.5,454.833 152.5,443.167 152.5,431.5 Z"/></g>
<g><path style="opacity:1" fill="#efe8e9" d="M 332.5,431.5 C 341.167,431.5 349.833,431.5 358.5,431.5C 358.5,443.167 358.5,454.833 358.5,466.5C 349.833,466.5 341.167,466.5 332.5,466.5C 332.5,454.833 332.5,443.167 332.5,431.5 Z"/></g>
<g><path style="opacity:1" fill="#8380e1" d="M 92.5,481.5 C 200.834,481.333 309.167,481.5 417.5,482C 422.415,484.442 423.749,488.276 421.5,493.5C 420.335,494.584 419.002,495.417 417.5,496C 309.167,496.667 200.833,496.667 92.5,496C 87.2138,491.169 87.2138,486.335 92.5,481.5 Z"/></g>
</svg>
