<?xml version="1.0" encoding="UTF-8"?>
<!DOCTYPE svg PUBLIC "-//W3C//DTD SVG 1.1//EN" "http://www.w3.org/Graphics/SVG/1.1/DTD/svg11.dtd">
<svg xmlns="http://www.w3.org/2000/svg" version="1.1" width="512px" height="512px" style="shape-rendering:geometricPrecision; text-rendering:geometricPrecision; image-rendering:optimizeQuality; fill-rule:evenodd; clip-rule:evenodd" xmlns:xlink="http://www.w3.org/1999/xlink">
<g><path style="opacity:0.933" fill="#002044" d="M 107.5,9.5 C 110.365,9.05484 112.865,9.7215 115,11.5C 117.911,20.8975 120.411,30.3975 122.5,40C 122.325,41.6581 121.658,42.9914 120.5,44C 118.231,44.7581 116.064,44.5914 114,43.5C 111.167,33.6667 108.333,23.8333 105.5,14C 106.044,12.415 106.711,10.915 107.5,9.5 Z"/></g>
<g><path style="opacity:0.922" fill="#002043" d="M 212.5,21.5 C 218.555,21.0522 220.721,23.7189 219,29.5C 214.293,37.7491 209.459,45.9158 204.5,54C 199.014,55.8253 196.514,53.9919 197,48.5C 201.673,39.1464 206.84,30.1464 212.5,21.5 Z"/></g>
<g><path style="opacity:0.986" fill="#0b2749" d="M 231.5,138.5 C 229.61,138.703 228.11,138.037 227,136.5C 222.271,109.636 208.105,89.6359 184.5,76.5C 149.166,58.932 117.333,63.932 89,91.5C 65.7118,120.322 62.2118,151.322 78.5,184.5C 80.3672,188.401 82.3672,192.234 84.5,196C 84.0217,197.303 83.355,198.469 82.5,199.5C 78.8365,201.202 76.0031,200.202 74,196.5C 55.0652,163.675 54.7319,130.675 73,97.5C 75.6142,93.9095 78.4475,90.5762 81.5,87.5C 84.8333,84.8333 87.8333,81.8333 90.5,78.5C 102.907,67.1338 117.573,60.3005 134.5,58C 183.124,54.8843 215.957,76.051 233,121.5C 234.585,126.413 235.252,131.413 235,136.5C 234.184,137.823 233.017,138.489 231.5,138.5 Z"/></g>
<g><path style="opacity:1" fill="#f7f7f6" d="M 184.5,76.5 C 135.853,62.0757 100.687,77.7424 79,123.5C 71.8998,143.77 71.7331,164.103 78.5,184.5C 62.2118,151.322 65.7118,120.322 89,91.5C 117.333,63.932 149.166,58.932 184.5,76.5 Z"/></g>
<g><path style="opacity:0.999" fill="#feba2d" d="M 184.5,76.5 C 208.105,89.6359 222.271,109.636 227,136.5C 228.11,138.037 229.61,138.703 231.5,138.5C 231.5,142.167 231.5,145.833 231.5,149.5C 213.406,149.027 195.406,149.527 177.5,151C 176.299,151.903 175.465,153.069 175,154.5C 173.169,169.149 171.502,183.816 170,198.5C 169.75,201.85 168.917,205.017 167.5,208C 141.835,208.5 116.169,208.667 90.5,208.5C 87.8333,205.5 85.1667,202.5 82.5,199.5C 83.355,198.469 84.0217,197.303 84.5,196C 82.3672,192.234 80.3672,188.401 78.5,184.5C 71.7331,164.103 71.8998,143.77 79,123.5C 100.687,77.7424 135.853,62.0757 184.5,76.5 Z"/></g>
<g><path style="opacity:0.906" fill="#002144" d="M 26.5,73.5 C 36.9551,77.645 46.7884,82.9783 56,89.5C 56.9931,95.5017 54.4931,97.6683 48.5,96C 40.9955,91.4135 33.3288,87.0801 25.5,83C 22.7651,79.5083 23.0985,76.3417 26.5,73.5 Z"/></g>
<g><path style="opacity:0.937" fill="#51677e" d="M 90.5,78.5 C 87.8333,81.8333 84.8333,84.8333 81.5,87.5C 83.5,83.5 86.5,80.5 90.5,78.5 Z"/></g>
<g><path style="opacity:0.924" fill="#002043" d="M 279.5,103.5 C 285.566,104.659 286.9,107.826 283.5,113C 275.5,115.333 267.5,117.667 259.5,120C 256.571,120.777 253.737,120.61 251,119.5C 248.897,116.819 249.064,114.319 251.5,112C 261.036,109.429 270.37,106.596 279.5,103.5 Z"/></g>
<g><path style="opacity:0.983" fill="#022245" d="M 231.5,149.5 C 299.501,149.333 367.501,149.5 435.5,150C 437.604,152.042 438.771,154.542 439,157.5C 442.113,176.344 445.279,195.177 448.5,214C 448.581,218.752 446.248,220.919 441.5,220.5C 437.514,201.59 433.848,182.59 430.5,163.5C 430.579,162.07 430.246,160.736 429.5,159.5C 413.18,158.501 396.847,158.167 380.5,158.5C 380.216,160.415 380.549,162.081 381.5,163.5C 382.194,178.855 383.194,194.188 384.5,209.5C 385.005,212.841 385.172,216.174 385,219.5C 382.333,222.167 379.667,222.167 377,219.5C 376.823,215.644 376.323,211.977 375.5,208.5C 374.82,191.634 373.487,174.968 371.5,158.5C 352.833,158.5 334.167,158.5 315.5,158.5C 315.5,160.167 315.5,161.833 315.5,163.5C 315.5,189.833 315.5,216.167 315.5,242.5C 324.5,242.5 333.5,242.5 342.5,242.5C 345.086,245.006 345.086,247.506 342.5,250C 333.324,250.17 324.324,250.67 315.5,251.5C 315.5,267.833 315.5,284.167 315.5,300.5C 315.5,314.5 315.5,328.5 315.5,342.5C 322.841,342.334 330.174,342.5 337.5,343C 340.086,345.494 340.086,347.994 337.5,350.5C 323.912,351.481 310.246,351.815 296.5,351.5C 293.167,351.5 289.833,351.5 286.5,351.5C 286.5,358.5 286.5,365.5 286.5,372.5C 289.833,372.5 293.167,372.5 296.5,372.5C 310.833,372.5 325.167,372.5 339.5,372.5C 339.5,368.167 339.5,363.833 339.5,359.5C 342.582,357.931 345.415,358.265 348,360.5C 348.5,379.164 348.667,397.83 348.5,416.5C 354.842,416.334 361.175,416.5 367.5,417C 370.072,417.432 371.406,418.932 371.5,421.5C 370.751,422.531 370.085,423.698 369.5,425C 328.998,425.167 288.665,425.667 248.5,426.5C 241.951,429.271 240.117,433.937 243,440.5C 244.451,442.464 246.284,443.797 248.5,444.5C 288.665,445.333 328.998,445.833 369.5,446C 370.085,447.302 370.751,448.469 371.5,449.5C 371.703,451.39 371.037,452.89 369.5,454C 327.787,454.978 286.12,454.644 244.5,453C 232.989,446.814 229.822,437.647 235,425.5C 238.313,420.761 242.813,417.928 248.5,417C 258.161,416.5 267.828,416.334 277.5,416.5C 277.5,403.833 277.5,391.167 277.5,378.5C 278.493,369.682 278.827,360.682 278.5,351.5C 237.832,351.667 197.165,351.5 156.5,351C 155.584,350.626 154.75,350.126 154,349.5C 152.445,344.618 152.112,339.618 153,334.5C 157.583,297.501 162.083,260.501 166.5,223.5C 167.461,221.735 167.795,219.735 167.5,217.5C 141.833,217.5 116.167,217.5 90.5,217.5C 90.5,219.5 90.5,221.5 90.5,223.5C 89.1309,240.81 88.1309,258.143 87.5,275.5C 86.5151,279.634 86.1818,283.968 86.5,288.5C 106.169,288.333 125.836,288.5 145.5,289C 148.167,291.333 148.167,293.667 145.5,296C 125.329,296.168 105.329,296.668 85.5,297.5C 84.7161,311.494 84.0494,325.494 83.5,339.5C 82.6047,348.334 81.9381,357.334 81.5,366.5C 80.5269,368.948 80.1936,371.615 80.5,374.5C 141.833,374.5 203.167,374.5 264.5,374.5C 266.262,375.262 267.262,376.596 267.5,378.5C 267.703,380.39 267.037,381.89 265.5,383C 235.168,383.5 204.835,383.667 174.5,383.5C 174.5,394.833 174.5,406.167 174.5,417.5C 185.172,417.333 195.839,417.5 206.5,418C 214.334,421.146 218.668,426.979 219.5,435.5C 218.668,444.021 214.334,449.854 206.5,453C 161.833,453.667 117.167,453.667 72.5,453C 60.5797,446.237 57.7463,436.737 64,424.5C 66.2643,421.567 69.0976,419.4 72.5,418C 83.495,417.5 94.495,417.333 105.5,417.5C 105.5,406.167 105.5,394.833 105.5,383.5C 72.8316,383.667 40.165,383.5 7.5,383C 4.33359,381.334 3.00026,378.668 3.5,375C 9.88458,320.423 16.7179,265.923 24,211.5C 24.8333,210.667 25.6667,209.833 26.5,209C 47.8307,208.5 69.1641,208.333 90.5,208.5C 116.169,208.667 141.835,208.5 167.5,208C 168.917,205.017 169.75,201.85 170,198.5C 171.502,183.816 173.169,169.149 175,154.5C 175.465,153.069 176.299,151.903 177.5,151C 195.406,149.527 213.406,149.027 231.5,149.5 Z"/></g>
<g><path style="opacity:1" fill="#f8fafb" d="M 236.5,163.5 C 220.833,163.5 205.167,163.5 189.5,163.5C 186.336,189.475 183.336,215.475 180.5,241.5C 178.167,241.5 175.833,241.5 173.5,241.5C 177.031,213.86 180.364,186.193 183.5,158.5C 201.167,158.5 218.833,158.5 236.5,158.5C 236.5,160.167 236.5,161.833 236.5,163.5 Z"/></g>
<g><path style="opacity:1" fill="#fefefe" d="M 306.5,163.5 C 286.167,163.5 265.833,163.5 245.5,163.5C 245.5,161.833 245.5,160.167 245.5,158.5C 265.833,158.5 286.167,158.5 306.5,158.5C 306.5,160.167 306.5,161.833 306.5,163.5 Z"/></g>
<g><path style="opacity:1" fill="#fefffe" d="M 371.5,158.5 C 371.5,160.167 371.5,161.833 371.5,163.5C 352.833,163.5 334.167,163.5 315.5,163.5C 315.5,161.833 315.5,160.167 315.5,158.5C 334.167,158.5 352.833,158.5 371.5,158.5 Z"/></g>
<g><path style="opacity:1" fill="#fdfdfd" d="M 430.5,163.5 C 420.5,163.5 410.5,163.5 400.5,163.5C 394.167,163.5 387.833,163.5 381.5,163.5C 380.549,162.081 380.216,160.415 380.5,158.5C 396.847,158.167 413.18,158.501 429.5,159.5C 430.246,160.736 430.579,162.07 430.5,163.5 Z"/></g>
<g><path style="opacity:1" fill="#4896b2" d="M 236.5,163.5 C 234.589,189.818 232.922,216.152 231.5,242.5C 211.993,242.83 192.659,242.497 173.5,241.5C 175.833,241.5 178.167,241.5 180.5,241.5C 183.336,215.475 186.336,189.475 189.5,163.5C 205.167,163.5 220.833,163.5 236.5,163.5 Z"/></g>
<g><path style="opacity:1" fill="#4896b2" d="M 245.5,163.5 C 265.833,163.5 286.167,163.5 306.5,163.5C 306.5,189.833 306.5,216.167 306.5,242.5C 284.5,242.5 262.5,242.5 240.5,242.5C 241.794,216.135 243.46,189.802 245.5,163.5 Z"/></g>
<g><path style="opacity:1" fill="#4896b2" d="M 371.5,158.5 C 373.487,174.968 374.82,191.634 375.5,208.5C 375.808,210.924 375.474,213.257 374.5,215.5C 361.98,222.358 351.313,231.358 342.5,242.5C 333.5,242.5 324.5,242.5 315.5,242.5C 315.5,216.167 315.5,189.833 315.5,163.5C 334.167,163.5 352.833,163.5 371.5,163.5C 371.5,161.833 371.5,160.167 371.5,158.5 Z"/></g>
<g><path style="opacity:1" fill="#4896b2" d="M 381.5,163.5 C 387.833,163.5 394.167,163.5 400.5,163.5C 401.983,169.568 402.983,175.735 403.5,182C 403.435,195.665 397.102,204.832 384.5,209.5C 383.194,194.188 382.194,178.855 381.5,163.5 Z"/></g>
<g><path style="opacity:1" fill="#027ba7" d="M 400.5,163.5 C 410.5,163.5 420.5,163.5 430.5,163.5C 433.848,182.59 437.514,201.59 441.5,220.5C 441.963,223.482 442.296,226.482 442.5,229.5C 399.466,224.93 368.966,242.263 351,281.5C 343.715,305.223 345.548,328.223 356.5,350.5C 350.833,350.5 345.167,350.5 339.5,350.5C 338.833,350.5 338.167,350.5 337.5,350.5C 340.086,347.994 340.086,345.494 337.5,343C 330.174,342.5 322.841,342.334 315.5,342.5C 315.5,328.5 315.5,314.5 315.5,300.5C 317.137,298.684 318.637,296.684 320,294.5C 322.702,279.558 327.869,265.558 335.5,252.5C 328.866,251.503 322.2,251.17 315.5,251.5C 324.324,250.67 333.324,250.17 342.5,250C 345.086,247.506 345.086,245.006 342.5,242.5C 351.313,231.358 361.98,222.358 374.5,215.5C 375.474,213.257 375.808,210.924 375.5,208.5C 376.323,211.977 376.823,215.644 377,219.5C 379.667,222.167 382.333,222.167 385,219.5C 385.172,216.174 385.005,212.841 384.5,209.5C 397.102,204.832 403.435,195.665 403.5,182C 402.983,175.735 401.983,169.568 400.5,163.5 Z"/></g>
<g><path style="opacity:0.926" fill="#002043" d="M 39.5,170.5 C 47.5533,170.022 49.3866,173.022 45,179.5C 34.9734,182.882 24.8067,185.382 14.5,187C 10.5,184 10.5,181 14.5,178C 23.0359,175.762 31.3692,173.262 39.5,170.5 Z"/></g>
<g><path style="opacity:1" fill="#f5f7f9" d="M 81.5,223.5 C 66.8333,223.5 52.1667,223.5 37.5,223.5C 35.4965,245.201 33.1632,266.868 30.5,288.5C 28.1667,288.5 25.8333,288.5 23.5,288.5C 26.5781,264.876 29.2447,241.209 31.5,217.5C 48.5,217.5 65.5,217.5 82.5,217.5C 82.7947,219.735 82.4614,221.735 81.5,223.5 Z"/></g>
<g><path style="opacity:1" fill="#f8f9fa" d="M 166.5,223.5 C 159.833,223.5 153.167,223.5 146.5,223.5C 127.833,223.5 109.167,223.5 90.5,223.5C 90.5,221.5 90.5,219.5 90.5,217.5C 116.167,217.5 141.833,217.5 167.5,217.5C 167.795,219.735 167.461,221.735 166.5,223.5 Z"/></g>
<g><path style="opacity:1" fill="#4996b2" d="M 81.5,223.5 C 80.4392,245.168 79.4392,266.834 78.5,288.5C 62.5,288.5 46.5,288.5 30.5,288.5C 33.1632,266.868 35.4965,245.201 37.5,223.5C 52.1667,223.5 66.8333,223.5 81.5,223.5 Z"/></g>
<g><path style="opacity:1" fill="#4996b2" d="M 90.5,223.5 C 109.167,223.5 127.833,223.5 146.5,223.5C 143.501,244.829 140.501,266.163 137.5,287.5C 120.833,287.5 104.167,287.5 87.5,287.5C 87.5,283.5 87.5,279.5 87.5,275.5C 88.1309,258.143 89.1309,240.81 90.5,223.5 Z"/></g>
<g><path style="opacity:1" fill="#047ba7" d="M 146.5,223.5 C 153.167,223.5 159.833,223.5 166.5,223.5C 162.083,260.501 157.583,297.501 153,334.5C 152.112,339.618 152.445,344.618 154,349.5C 154.75,350.126 155.584,350.626 156.5,351C 197.165,351.5 237.832,351.667 278.5,351.5C 278.827,360.682 278.493,369.682 277.5,378.5C 274.167,378.5 270.833,378.5 267.5,378.5C 267.262,376.596 266.262,375.262 264.5,374.5C 203.669,373.501 142.669,373.168 81.5,373.5C 81.5,371.167 81.5,368.833 81.5,366.5C 81.9381,357.334 82.6047,348.334 83.5,339.5C 83.5,342.167 83.5,344.833 83.5,347.5C 118.08,348.922 135.413,332.256 135.5,297.5C 118.833,297.5 102.167,297.5 85.5,297.5C 105.329,296.668 125.329,296.168 145.5,296C 148.167,293.667 148.167,291.333 145.5,289C 125.836,288.5 106.169,288.333 86.5,288.5C 86.1818,283.968 86.5151,279.634 87.5,275.5C 87.5,279.5 87.5,283.5 87.5,287.5C 104.167,287.5 120.833,287.5 137.5,287.5C 140.501,266.163 143.501,244.829 146.5,223.5 Z"/></g>
<g><path style="opacity:0.978" fill="#052345" d="M 442.5,229.5 C 478.951,238.453 500.451,261.453 507,298.5C 509.349,317.741 505.683,335.741 496,352.5C 483.471,366.222 475.138,382.222 471,400.5C 470.07,405.799 469.403,411.133 469,416.5C 468.667,435.833 468.333,455.167 468,474.5C 467.25,475.126 466.416,475.626 465.5,476C 460.511,476.499 455.511,476.666 450.5,476.5C 450.05,491.783 442.216,500.117 427,501.5C 411.266,500.599 403.1,492.266 402.5,476.5C 397.489,476.666 392.489,476.499 387.5,476C 386.333,475.5 385.5,474.667 385,473.5C 384.927,449.802 384.26,426.135 383,402.5C 381.131,394.227 378.464,386.227 375,378.5C 369.004,369.013 362.837,359.68 356.5,350.5C 345.548,328.223 343.715,305.223 351,281.5C 368.966,242.263 399.466,224.93 442.5,229.5 Z"/></g>
<g><path style="opacity:1" fill="#f7f5f1" d="M 453.5,242.5 C 444.103,241.456 434.769,241.456 425.5,242.5C 387.654,248.407 365.487,270.407 359,308.5C 357.93,319.007 358.763,329.341 361.5,339.5C 347.428,302.304 356.428,271.804 388.5,248C 409.411,235.174 431.077,233.34 453.5,242.5 Z"/></g>
<g><path style="opacity:1" fill="#fd9f2d" d="M 453.5,242.5 C 481.612,255.144 496.612,276.977 498.5,308C 498.638,319.309 496.472,330.142 492,340.5C 487.116,349.381 481.449,357.714 475,365.5C 464.853,382.751 459.686,401.418 459.5,421.5C 453.833,421.5 448.167,421.5 442.5,421.5C 442.5,402.833 442.5,384.167 442.5,365.5C 445.676,357.983 448.676,350.316 451.5,342.5C 463.08,341.746 469.58,335.746 471,324.5C 465.986,321.12 462.653,322.453 461,328.5C 459.549,330.464 457.716,331.797 455.5,332.5C 454.957,332.44 454.624,332.107 454.5,331.5C 457.51,321.753 458.843,311.753 458.5,301.5C 458.628,275.406 447.628,255.739 425.5,242.5C 434.769,241.456 444.103,241.456 453.5,242.5 Z"/></g>
<g><path style="opacity:1" fill="#fdba2d" d="M 425.5,242.5 C 447.628,255.739 458.628,275.406 458.5,301.5C 458.843,311.753 457.51,321.753 454.5,331.5C 454.624,332.107 454.957,332.44 455.5,332.5C 452.893,333.802 450.227,333.636 447.5,332C 443.925,323.086 437.425,317.919 428,316.5C 418.667,317.5 412.667,322.5 410,331.5C 406.498,334.601 402.665,335.101 398.5,333C 396.235,329.8 394.235,326.467 392.5,323C 387.667,322.5 385.5,324.667 386,329.5C 391.655,343.239 401.155,346.739 414.5,340C 417.491,337.01 419.657,333.51 421,329.5C 424.583,325.15 428.749,324.483 433.5,327.5C 435.461,331.258 437.795,334.758 440.5,338C 443.726,340.575 447.393,342.075 451.5,342.5C 448.676,350.316 445.676,357.983 442.5,365.5C 442.666,361.154 442.499,356.821 442,352.5C 438.949,349.626 436.282,349.959 434,353.5C 433.5,376.164 433.333,398.831 433.5,421.5C 428.833,421.5 424.167,421.5 419.5,421.5C 419.667,398.831 419.5,376.164 419,353.5C 416.633,350.068 413.966,349.735 411,352.5C 410.5,375.498 410.333,398.498 410.5,421.5C 404.833,421.5 399.167,421.5 393.5,421.5C 394.082,403.828 390.249,387.161 382,371.5C 377.056,363.557 371.723,355.891 366,348.5C 364.487,345.473 362.987,342.473 361.5,339.5C 358.763,329.341 357.93,319.007 359,308.5C 365.487,270.407 387.654,248.407 425.5,242.5 Z"/></g>
<g><path style="opacity:1" fill="#f1f5f7" d="M 172.5,251.5 C 174.5,251.5 176.5,251.5 178.5,251.5C 176.085,270.486 173.752,289.486 171.5,308.5C 169.907,319.758 168.573,331.092 167.5,342.5C 165.5,342.5 163.5,342.5 161.5,342.5C 164.445,311.943 168.112,281.609 172.5,251.5 Z"/></g>
<g><path style="opacity:1" fill="#4896b2" d="M 172.5,251.5 C 191.659,250.503 210.993,250.17 230.5,250.5C 229.611,269.838 228.611,289.171 227.5,308.5C 208.833,308.5 190.167,308.5 171.5,308.5C 173.752,289.486 176.085,270.486 178.5,251.5C 176.5,251.5 174.5,251.5 172.5,251.5 Z"/></g>
<g><path style="opacity:1" fill="#4896b2" d="M 306.5,307.5 C 294.02,308.115 281.52,308.449 269,308.5C 257.812,308.499 246.979,307.832 236.5,306.5C 237.194,287.815 238.194,269.148 239.5,250.5C 261.833,250.5 284.167,250.5 306.5,250.5C 306.5,269.5 306.5,288.5 306.5,307.5 Z"/></g>
<g><path style="opacity:1" fill="#4896b2" d="M 315.5,251.5 C 322.2,251.17 328.866,251.503 335.5,252.5C 327.869,265.558 322.702,279.558 320,294.5C 318.637,296.684 317.137,298.684 315.5,300.5C 315.5,284.167 315.5,267.833 315.5,251.5 Z"/></g>
<g><path style="opacity:0.753" fill="#1d5070" d="M 29.5,296.5 C 45.5,296.5 61.5,296.5 77.5,296.5C 77.7845,298.415 77.4511,300.081 76.5,301.5C 76.5,300.167 76.5,298.833 76.5,297.5C 60.6578,297.83 44.9911,297.496 29.5,296.5 Z"/></g>
<g><path style="opacity:1" fill="#f3f6f8" d="M 22.5,297.5 C 24.5,297.5 26.5,297.5 28.5,297.5C 26.6649,314.181 24.6649,330.847 22.5,347.5C 21.5821,356.51 20.5821,365.51 19.5,374.5C 17.1667,374.5 14.8333,374.5 12.5,374.5C 15.7497,348.696 19.083,323.029 22.5,297.5 Z"/></g>
<g><path style="opacity:1" fill="#4997b2" d="M 22.5,297.5 C 24.6074,296.532 26.9407,296.198 29.5,296.5C 44.9911,297.496 60.6578,297.83 76.5,297.5C 76.5,298.833 76.5,300.167 76.5,301.5C 76.0694,316.88 75.0694,332.214 73.5,347.5C 56.5,347.5 39.5,347.5 22.5,347.5C 24.6649,330.847 26.6649,314.181 28.5,297.5C 26.5,297.5 24.5,297.5 22.5,297.5 Z"/></g>
<g><path style="opacity:1" fill="#4896b2" d="M 85.5,297.5 C 102.167,297.5 118.833,297.5 135.5,297.5C 135.413,332.256 118.08,348.922 83.5,347.5C 83.5,344.833 83.5,342.167 83.5,339.5C 84.0494,325.494 84.7161,311.494 85.5,297.5 Z"/></g>
<g><path style="opacity:1" fill="#027ba7" d="M 236.5,306.5 C 246.979,307.832 257.812,308.499 269,308.5C 281.52,308.449 294.02,308.115 306.5,307.5C 306.5,319.167 306.5,330.833 306.5,342.5C 282.167,342.5 257.833,342.5 233.5,342.5C 234.135,330.326 235.135,318.326 236.5,306.5 Z"/></g>
<g><path style="opacity:1" fill="#047ba7" d="M 171.5,308.5 C 190.167,308.5 208.833,308.5 227.5,308.5C 226.172,319.79 225.505,331.123 225.5,342.5C 206.167,342.5 186.833,342.5 167.5,342.5C 168.573,331.092 169.907,319.758 171.5,308.5 Z"/></g>
<g><path style="opacity:1" fill="#0b2645" d="M 455.5,332.5 C 457.716,331.797 459.549,330.464 461,328.5C 462.653,322.453 465.986,321.12 471,324.5C 469.58,335.746 463.08,341.746 451.5,342.5C 447.393,342.075 443.726,340.575 440.5,338C 437.795,334.758 435.461,331.258 433.5,327.5C 428.749,324.483 424.583,325.15 421,329.5C 419.657,333.51 417.491,337.01 414.5,340C 401.155,346.739 391.655,343.239 386,329.5C 385.5,324.667 387.667,322.5 392.5,323C 394.235,326.467 396.235,329.8 398.5,333C 402.665,335.101 406.498,334.601 410,331.5C 412.667,322.5 418.667,317.5 428,316.5C 437.425,317.919 443.925,323.086 447.5,332C 450.227,333.636 452.893,333.802 455.5,332.5 Z"/></g>
<g><path style="opacity:1" fill="#037ba6" d="M 22.5,347.5 C 39.5,347.5 56.5,347.5 73.5,347.5C 72.8342,356.485 72.5009,365.485 72.5,374.5C 54.8333,374.5 37.1667,374.5 19.5,374.5C 20.5821,365.51 21.5821,356.51 22.5,347.5 Z"/></g>
<g><path style="opacity:0.999" fill="#b5c6ca" d="M 337.5,350.5 C 338.167,350.5 338.833,350.5 339.5,350.5C 339.5,353.5 339.5,356.5 339.5,359.5C 339.5,363.833 339.5,368.167 339.5,372.5C 325.167,372.5 310.833,372.5 296.5,372.5C 296.5,365.5 296.5,358.5 296.5,351.5C 310.246,351.815 323.912,351.481 337.5,350.5 Z"/></g>
<g><path style="opacity:0.999" fill="#f5f6f7" d="M 296.5,351.5 C 296.5,358.5 296.5,365.5 296.5,372.5C 293.167,372.5 289.833,372.5 286.5,372.5C 286.5,365.5 286.5,358.5 286.5,351.5C 289.833,351.5 293.167,351.5 296.5,351.5 Z"/></g>
<g><path style="opacity:1" fill="#015c85" d="M 81.5,366.5 C 81.5,368.833 81.5,371.167 81.5,373.5C 142.669,373.168 203.669,373.501 264.5,374.5C 203.167,374.5 141.833,374.5 80.5,374.5C 80.1936,371.615 80.5269,368.948 81.5,366.5 Z"/></g>
<g><path style="opacity:0.999" fill="#f3f4f6" d="M 296.5,381.5 C 296.5,393.5 296.5,405.5 296.5,417.5C 293.167,417.5 289.833,417.5 286.5,417.5C 286.333,405.495 286.5,393.495 287,381.5C 290.269,380.182 293.435,380.182 296.5,381.5 Z"/></g>
<g><path style="opacity:1" fill="#b5c7ca" d="M 296.5,381.5 C 310.833,381.5 325.167,381.5 339.5,381.5C 339.5,393.5 339.5,405.5 339.5,417.5C 325.167,417.5 310.833,417.5 296.5,417.5C 296.5,405.5 296.5,393.5 296.5,381.5 Z"/></g>
<g><path style="opacity:1" fill="#fbfbfc" d="M 122.5,382.5 C 123.478,394.086 123.811,405.753 123.5,417.5C 120.5,417.5 117.5,417.5 114.5,417.5C 114.5,405.833 114.5,394.167 114.5,382.5C 117.167,382.5 119.833,382.5 122.5,382.5 Z"/></g>
<g><path style="opacity:1" fill="#b4c6c9" d="M 122.5,382.5 C 136.833,382.5 151.167,382.5 165.5,382.5C 165.5,394.167 165.5,405.833 165.5,417.5C 151.5,417.5 137.5,417.5 123.5,417.5C 123.811,405.753 123.478,394.086 122.5,382.5 Z"/></g>
<g><path style="opacity:0.995" fill="#b0c1c6" d="M 371.5,421.5 C 378.555,423.728 381.889,428.562 381.5,436C 381.894,443.413 378.561,447.913 371.5,449.5C 370.751,448.469 370.085,447.302 369.5,446C 328.998,445.833 288.665,445.333 248.5,444.5C 250.288,444.785 251.955,444.452 253.5,443.5C 250.64,437.761 250.973,432.261 254.5,427C 252.527,426.505 250.527,426.338 248.5,426.5C 288.665,425.667 328.998,425.167 369.5,425C 370.085,423.698 370.751,422.531 371.5,421.5 Z"/></g>
<g><path style="opacity:0.993" fill="#f9fafb" d="M 84.5,426.5 C 79.3729,430.408 78.2062,435.408 81,441.5C 82.1451,442.636 83.3117,443.636 84.5,444.5C 76.1315,446.329 71.1315,443.163 69.5,435C 71.6923,427.563 76.6923,424.73 84.5,426.5 Z"/></g>
<g><path style="opacity:1" fill="#b7c8cb" d="M 84.5,426.5 C 124.501,426.333 164.501,426.5 204.5,427C 209.665,430.721 210.832,435.554 208,441.5C 206.745,442.211 205.579,443.044 204.5,444C 164.501,444.5 124.501,444.667 84.5,444.5C 83.3117,443.636 82.1451,442.636 81,441.5C 78.2062,435.408 79.3729,430.408 84.5,426.5 Z"/></g>
<g><path style="opacity:0.988" fill="#f9fafb" d="M 248.5,426.5 C 250.527,426.338 252.527,426.505 254.5,427C 250.973,432.261 250.64,437.761 253.5,443.5C 251.955,444.452 250.288,444.785 248.5,444.5C 246.284,443.797 244.451,442.464 243,440.5C 240.117,433.937 241.951,429.271 248.5,426.5 Z"/></g>
<g><path style="opacity:1" fill="#fdfdfd" d="M 393.5,430.5 C 415.5,430.5 437.5,430.5 459.5,430.5C 459.5,442.833 459.5,455.167 459.5,467.5C 437.5,467.5 415.5,467.5 393.5,467.5C 393.5,455.167 393.5,442.833 393.5,430.5 Z"/></g>
<g><path style="opacity:0.999" fill="#f8f9fa" d="M 411.5,475.5 C 421.5,475.5 431.5,475.5 441.5,475.5C 441.07,488.423 434.403,493.923 421.5,492C 414.741,488.66 411.408,483.16 411.5,475.5 Z"/></g>
</svg>
